<svg width="28" height="31" viewBox="0 0 28 31" fill="none" xmlns="http://www.w3.org/2000/svg">
<path d="M19.871 24C19.5887 24 19.3629 23.8938 19.1089 23.7521L8.25605 17.5896C7.38105 17.0938 7 16.4385 7 15.5354C7 14.65 7.35282 13.9771 8.24194 13.4635L19.1089 7.24792C19.3629 7.10625 19.5887 7 19.871 7C20.5343 7 21 7.58438 21 8.41667C21 9.14271 20.6331 9.62083 20.0968 9.90417L9.92137 15.3229V15.4823L20.0968 21.0958C20.619 21.3969 21 21.8573 21 22.5833C21 23.4156 20.5343 24 19.871 24Z" fill="black" style="fill:black;fill-opacity:1;"/>
</svg>
