<svg width="799" height="337" viewBox="0 0 799 337" fill="none" xmlns="http://www.w3.org/2000/svg">
<path d="M11.5336 163V53.0914H67.9805C74.5841 53.0914 80.3735 54.2674 85.3488 56.6193C90.3241 58.9713 94.2138 62.2731 97.0181 66.5247C99.8224 70.6858 101.224 75.5254 101.224 81.0435C101.224 86.5615 99.7771 91.2654 96.8824 95.1552C93.9877 98.9545 90.0527 101.804 85.0774 103.704V104.246C89.329 105.332 93.0379 107.141 96.204 109.674C99.4605 112.207 101.993 115.328 103.803 119.037C105.702 122.745 106.652 126.952 106.652 131.656C106.652 137.897 105.114 143.37 102.039 148.074C98.963 152.778 94.7114 156.442 89.2838 159.065C83.9467 161.688 77.6597 163 70.4229 163H11.5336ZM34.4652 142.918H66.3522C71.8703 142.918 76.1219 141.742 79.1071 139.39C82.0922 136.948 83.5848 133.465 83.5848 128.942C83.5848 124.419 82.0922 120.981 79.1071 118.629C76.2124 116.278 72.006 115.102 66.4879 115.102H34.4652V142.918ZM34.4652 96.9191H64.724C69.066 96.9191 72.3678 95.9241 74.6293 93.934C76.9813 91.8534 78.1572 88.8682 78.1572 84.9785C78.1572 81.0887 76.9813 78.1487 74.6293 76.1586C72.3678 74.1685 69.066 73.1735 64.724 73.1735H34.4652V96.9191ZM147.382 164.493C137.794 164.493 130.285 162.186 124.858 157.572C119.43 152.869 116.716 146.717 116.716 139.119C116.716 131.068 119.521 124.871 125.129 120.529C130.738 116.187 138.789 114.016 149.282 114.016H172.621V110.895C172.621 102.121 167.374 97.7333 156.881 97.7333C147.744 97.7333 142.226 100.899 140.326 107.232H117.938C119.747 98.276 123.953 91.4916 130.557 86.8781C137.16 82.2647 145.935 79.9579 156.881 79.9579C169.002 79.9579 178.229 82.6717 184.561 88.0993C190.984 93.5269 194.195 101.442 194.195 111.845V140.747H204.779V163H181.983V149.702H176.284C173.48 154.406 169.726 158.07 165.022 160.693C160.318 163.226 154.438 164.493 147.382 164.493ZM150.775 147.396C155.026 147.396 158.78 146.627 162.037 145.089C165.293 143.551 167.871 141.516 169.771 138.983C171.671 136.36 172.621 133.42 172.621 130.163V128.942H150.367C142.226 128.942 138.155 131.972 138.155 138.033C138.155 141.018 139.286 143.325 141.548 144.953C143.809 146.582 146.885 147.396 150.775 147.396ZM221.772 163V103.839H210.645V81.5862H233.441V97.5976H239.14C241.311 91.8986 244.749 87.647 249.453 84.8428C254.157 82.0385 259.448 80.6364 265.328 80.6364H272.249V100.176H264.379C257.323 100.176 252.121 102.166 248.774 106.146C245.518 110.126 243.889 115.373 243.889 121.886V163H221.772ZM336.898 164.628C330.023 164.628 324.143 163.317 319.259 160.693C314.464 158.07 310.62 154.406 307.725 149.702H302.026V163H279.23V140.747H290.357V49.0207H312.881V92.7128H313.424C315.866 88.6421 319.213 85.5212 323.465 83.3502C327.717 81.0887 332.828 79.9579 338.798 79.9579C346.668 79.9579 353.362 81.7219 358.88 85.2498C364.398 88.6873 368.604 93.6174 371.499 100.04C374.394 106.372 375.841 113.79 375.841 122.293C375.841 130.706 374.349 138.124 371.363 144.546C368.378 150.878 363.991 155.808 358.202 159.336C352.412 162.864 345.311 164.628 336.898 164.628ZM332.692 145.089C339.567 145.089 344.723 143.054 348.161 138.983C351.598 134.912 353.317 129.349 353.317 122.293C353.317 115.237 351.598 109.674 348.161 105.603C344.723 101.533 339.567 99.4972 332.692 99.4972C326.631 99.4972 321.792 101.216 318.173 104.653C314.645 108 312.881 112.659 312.881 118.629V125.957C312.881 131.927 314.645 136.631 318.173 140.068C321.792 143.415 326.631 145.089 332.692 145.089ZM428.118 164.628C419.343 164.628 411.699 162.91 405.186 159.472C398.673 155.944 393.653 151.014 390.125 144.682C386.597 138.259 384.833 130.706 384.833 122.022C384.833 113.338 386.552 105.875 389.989 99.6329C393.426 93.3007 398.311 88.4612 404.643 85.1141C411.066 81.6767 418.62 79.9579 427.304 79.9579C435.807 79.9579 443.089 81.5862 449.15 84.8428C455.301 88.0993 460.005 92.758 463.261 98.8188C466.518 104.88 468.146 112.116 468.146 120.529V128.128H406.407C407.312 134.189 409.619 138.802 413.328 141.968C417.036 145.134 421.921 146.717 427.982 146.717C432.776 146.717 436.576 145.903 439.38 144.275C442.184 142.647 444.174 140.159 445.35 136.812H467.875C466.066 145.496 461.678 152.326 454.713 157.301C447.748 162.186 438.883 164.628 428.118 164.628ZM406.95 113.202H446.572C445.848 108.046 443.858 104.201 440.601 101.668C437.345 99.0449 432.957 97.7333 427.439 97.7333C421.921 97.7333 417.398 99.0449 413.87 101.668C410.433 104.292 408.126 108.136 406.95 113.202ZM488.593 163V103.839H477.466V81.5862H500.262V97.5976H505.961C508.132 91.8986 511.57 87.647 516.274 84.8428C520.978 82.0385 526.269 80.6364 532.149 80.6364H539.07V100.176H531.2C524.144 100.176 518.942 102.166 515.595 106.146C512.339 110.126 510.71 115.373 510.71 121.886V163H488.593ZM641.114 164.628C630.44 164.628 621.032 162.276 612.891 157.572C604.84 152.778 598.508 146.129 593.894 137.626C589.372 129.123 587.11 119.308 587.11 108.181C587.11 96.7835 589.462 86.8329 594.166 78.3297C598.87 69.8264 605.473 63.2229 613.977 58.519C622.48 53.8151 632.385 51.4631 643.693 51.4631C652.829 51.4631 660.88 53.0462 667.845 56.2122C674.811 59.2879 680.51 63.7204 684.942 69.5098C689.465 75.2993 692.315 82.2194 693.491 90.2703H669.474C668.479 84.3905 665.72 79.8675 661.197 76.7014C656.674 73.4448 650.839 71.8166 643.693 71.8166C636.908 71.8166 630.983 73.3091 625.917 76.2943C620.942 79.189 617.052 83.3954 614.248 88.9135C611.534 94.4315 610.177 100.899 610.177 108.317C610.177 115.916 611.579 122.519 614.384 128.128C617.188 133.646 621.123 137.943 626.189 141.018C631.254 144.003 637.225 145.496 644.1 145.496C649.165 145.496 653.734 144.682 657.804 143.054C661.875 141.425 665.086 139.164 667.438 136.269C669.79 133.374 670.966 130.118 670.966 126.499V122.293H642.064V104.518H676.529C682.138 104.518 686.344 105.875 689.149 108.588C692.043 111.302 693.491 115.328 693.491 120.665V163H672.323V150.245H671.645C669.112 154.949 665.222 158.522 659.975 160.965C654.729 163.407 648.442 164.628 641.114 164.628ZM750.499 164.628C741.634 164.628 733.9 162.91 727.296 159.472C720.783 155.944 715.718 151.014 712.099 144.682C708.481 138.35 706.672 130.842 706.672 122.157C706.672 113.564 708.436 106.101 711.964 99.7686C715.582 93.4364 720.693 88.5516 727.296 85.1141C733.9 81.6767 741.68 79.9579 750.635 79.9579C759.5 79.9579 767.189 81.6767 773.702 85.1141C780.215 88.5516 785.236 93.4364 788.764 99.7686C792.292 106.101 794.056 113.609 794.056 122.293C794.056 130.887 792.292 138.395 788.764 144.818C785.236 151.15 780.17 156.035 773.567 159.472C767.054 162.91 759.364 164.628 750.499 164.628ZM750.499 145.089C757.284 145.089 762.485 143.054 766.104 138.983C769.722 134.822 771.531 129.213 771.531 122.157C771.531 115.102 769.722 109.584 766.104 105.603C762.485 101.533 757.284 99.4972 750.499 99.4972C743.624 99.4972 738.333 101.533 734.624 105.603C731.005 109.584 729.196 115.102 729.196 122.157C729.196 129.213 731.005 134.822 734.624 138.983C738.333 143.054 743.624 145.089 750.499 145.089Z" fill="#6B4226" style="fill:#6B4226;fill:color(display-p3 0.4196 0.2588 0.1490);fill-opacity:1;"/>
<path d="M250.169 127.231C251.817 127.856 252.641 128.453 252.641 129.021C252.641 130.214 243.862 148.853 226.303 184.936L212.069 219.286H212.75C217.751 212.297 222.638 208.802 227.411 208.802H231.758C232.269 208.802 233.292 209.825 234.827 211.87V213.66C234.827 216.388 232.184 220.479 226.9 225.934C229.968 224.571 234.457 221.133 240.367 215.621H240.964L244.032 216.218V217.411C234.656 228.037 225.024 233.35 215.137 233.35H212.069L209 232.753C204.909 241.277 201.67 246.59 199.283 248.693H196.726L194.936 247.414C214.54 197.636 231.929 158.768 247.101 130.811L246.504 129.703C247.356 128.055 248.578 127.231 250.169 127.231ZM211.557 229.685V230.282C220.081 226.645 226.019 221.332 229.371 214.342V213.149C229.371 212.297 228.945 211.87 228.093 211.87C224.002 212.893 218.49 218.831 211.557 229.685ZM244.629 211.018C245.424 211.416 246.021 211.615 246.419 211.615V212.126C242.782 221.616 240.964 226.73 240.964 227.469H241.56C246.447 224.23 251.135 220.792 255.624 217.155H256.903L259.375 217.752C255.681 230.537 249.544 246.476 240.964 265.569C260.568 255.796 286.508 250.909 318.784 250.909H333.019C357.453 250.909 379.131 253.153 398.054 257.642L398.565 258.836V260.711L392.428 261.222C391.235 261.222 390.212 260.427 389.36 258.836C368.335 255.597 348.304 253.977 329.268 253.977H322.535C283.212 253.977 254.772 260.313 237.213 272.985C218.12 315.091 200.732 336.145 185.049 336.145C183.458 336.145 182.236 335.349 181.383 333.758V330.008C186.214 314.097 200.732 296.112 224.939 276.053C232.042 271.792 236.134 266.848 237.213 261.222C244.203 244.857 248.72 233.435 250.766 226.957C244.97 230.651 240.878 232.498 238.492 232.498C236.276 232.498 235.054 231.844 234.827 230.537V230.026C237.611 217.354 240.878 211.018 244.629 211.018ZM186.327 332.48C196.84 332.48 211.159 314.495 229.286 278.525C216.273 288.128 204.596 300.175 194.254 314.665C188.969 323.303 186.327 329.241 186.327 332.48ZM315.716 203.688H318.102C321 203.688 322.449 205.137 322.449 208.035C322.449 209.399 319.779 212.268 314.437 216.644C315.801 218.178 317.023 221.445 318.102 226.446C321 226.446 327.137 222.781 336.513 215.45H338.985C339.838 215.564 340.264 215.962 340.264 216.644V217.24C333.161 223.889 325.575 228.406 317.506 230.793C316.312 234.032 313.869 235.651 310.175 235.651H306.51V233.265C307.874 231.219 310.119 229.372 313.244 227.724C313.244 225.451 311.425 220.735 307.789 213.575V211.785C309.039 206.387 311.681 203.688 315.716 203.688ZM312.647 212.382C315.204 210.848 316.824 208.972 317.506 206.756H316.994C314.096 208.063 312.647 209.938 312.647 212.382ZM344.526 204.37C345.378 204.767 346.003 204.966 346.401 204.966V205.648C346.401 206.557 344.355 210.848 340.264 218.519C346.685 211.984 351.969 208.717 356.118 208.717H356.8C360.436 209.455 362.255 210.478 362.255 211.785V214.854C362.255 217.127 360.209 220.394 356.118 224.656H355.606V225.167H356.118C356.629 225.167 361.147 221.928 369.67 215.45H373.421V218.519C362.567 226.474 355.18 230.963 351.259 231.986L345.122 232.583H335.917C329.211 242.925 320.603 259.29 310.09 281.679H307.022C306.283 281.679 305.914 281.253 305.914 280.4C306.652 276.764 316.227 255.71 334.638 217.24C338.9 208.66 341.968 204.37 343.844 204.37H344.526ZM338.388 228.918C347.821 226.247 352.538 223.804 352.538 221.587C355.777 218.178 357.396 215.28 357.396 212.893L356.118 212.382C351.799 213.064 345.889 218.576 338.388 228.918ZM407.6 133.027C408.339 133.425 408.936 133.624 409.39 133.624V134.306C409.39 135.897 401.208 156.126 384.842 194.994L375.637 217.155H376.233C376.233 215.678 380.126 211.785 387.911 205.478H390.297C392.798 205.478 394.048 206.671 394.048 209.058C393.082 212.581 390.439 219.144 386.121 228.747H386.632C389.417 228.747 395.383 224.059 404.532 214.683H407.6C408.339 214.797 408.708 215.195 408.708 215.877V216.473C399.503 227.156 392.144 232.498 386.632 232.498H383.564L380.495 231.816V229.429C380.495 227.44 382.967 221.502 387.911 211.615H387.229C375.409 224.741 369.5 231.702 369.5 232.498H365.153C364.357 232.498 363.959 231.844 363.959 230.537L405.043 133.624C405.27 133.624 406.123 133.425 407.6 133.027ZM415.101 207.012H416.209C419.562 207.296 421.238 208.717 421.238 211.274C421.238 213.547 416.721 216.019 407.686 218.689C405.64 223.008 404.617 225.849 404.617 227.213H405.214C410.157 226.815 416.891 222.951 425.415 215.621H427.375C428.114 215.678 428.483 216.047 428.483 216.729V218.008C420.3 226.19 413.141 230.282 407.004 230.282H403.424C400.526 230.282 399.077 229.06 399.077 226.616C399.077 224.457 400.099 222.014 402.145 219.286L401.548 218.008V216.729C402.401 216.729 405.469 213.888 410.754 208.205L415.101 207.012ZM412.629 213.149H413.141L415.698 210.592C413.823 211.444 412.8 212.297 412.629 213.149ZM431.466 202.068H433.853C435.33 203.659 438.825 205.705 444.337 208.205V208.802C444.337 209.768 442.093 215.308 437.603 225.423V225.934C438.683 225.934 441.95 222.866 447.406 216.729C448.087 215.138 449.536 214.342 451.753 214.342H452.264C453.116 214.399 453.543 214.825 453.543 215.621V216.729C447.008 225.366 441.894 229.685 438.2 229.685H435.813C433.313 229.685 432.063 228.435 432.063 225.934C432.063 224.173 434.336 218.689 438.882 209.484C437.064 209.029 435.217 208.802 433.342 208.802C425.5 227.724 420.982 237.754 419.789 238.89H416.721C415.868 238.89 415.442 238.493 415.442 237.697C424.591 214.342 429.932 202.466 431.466 202.068ZM460.617 207.012H461.725C465.078 207.296 466.754 208.717 466.754 211.274C466.754 213.547 462.237 216.019 453.202 218.689C451.156 223.008 450.133 225.849 450.133 227.213H450.73C455.673 226.815 462.407 222.951 470.931 215.621H472.891C473.63 215.678 473.999 216.047 473.999 216.729V218.008C465.817 226.19 458.657 230.282 452.52 230.282H448.94C446.042 230.282 444.593 229.06 444.593 226.616C444.593 224.457 445.616 222.014 447.661 219.286L447.065 218.008V216.729C447.917 216.729 450.985 213.888 456.27 208.205L460.617 207.012ZM458.145 213.149H458.657L461.214 210.592C459.339 211.444 458.316 212.297 458.145 213.149ZM487.467 227.128C489.512 227.866 490.535 229.088 490.535 230.793C488.717 232.441 486.273 233.265 483.205 233.265L481.33 230.793V229.514C481.33 228.321 483.375 227.526 487.467 227.128ZM555.4 134.561H557.786C558.639 134.561 559.065 135.186 559.065 136.436L506.304 259.688C506.702 260.54 506.9 261.194 506.9 261.648L505.025 262.756H504.514C502.298 262.756 501.048 262.16 500.763 260.967C500.763 258.864 507.923 241.476 522.243 208.802C518.606 212.723 516.788 216.019 516.788 218.689C514.799 218.689 511.73 220.735 507.582 224.826C504.571 226.872 502.298 227.895 500.763 227.895H496.416C495.678 227.895 495.308 227.469 495.308 226.616V225.934C495.536 220.65 499.4 213.916 506.9 205.733L509.969 205.137H510.651C512.185 205.137 514.003 206.16 516.106 208.205H516.788C525.198 194.397 531.704 182.549 536.307 172.662C543.296 159.081 549.234 146.58 554.121 135.158L555.4 134.561ZM501.445 223.548C505.764 221.218 509.202 217.922 511.759 213.66V213.149C511.361 210.706 510.764 209.484 509.969 209.484C505.366 214.484 502.525 219.172 501.445 223.548ZM544.66 207.012H545.768C549.121 207.296 550.797 208.717 550.797 211.274C550.797 213.547 546.28 216.019 537.244 218.689C535.199 223.008 534.176 225.849 534.176 227.213H534.773C539.716 226.815 546.45 222.951 554.974 215.621H556.934C557.673 215.678 558.042 216.047 558.042 216.729V218.008C549.859 226.19 542.7 230.282 536.563 230.282H532.983C530.085 230.282 528.636 229.06 528.636 226.616C528.636 224.457 529.658 222.014 531.704 219.286L531.107 218.008V216.729C531.96 216.729 535.028 213.888 540.313 208.205L544.66 207.012ZM542.188 213.149H542.7L545.257 210.592C543.381 211.444 542.359 212.297 542.188 213.149ZM579.692 206.756H580.971C581.709 206.927 582.079 207.353 582.079 208.035C581.681 210.421 581.482 212.467 581.482 214.172C583.869 215.82 585.517 216.644 586.426 216.644L589.494 214.854H591.966C592.818 214.911 593.245 215.28 593.245 215.962V216.644C593.245 217.894 591.369 218.917 587.619 219.712H585.147C583.215 219.712 581.17 219.116 579.01 217.922C567.589 245.709 560.23 259.603 556.934 259.603H552.672C551.081 259.603 550.058 256.534 549.604 250.397C550.74 225.395 552.587 212.893 555.144 212.893H556.934C557.786 212.893 558.213 213.547 558.213 214.854C556.167 231.901 555.144 243.522 555.144 249.715V254.744C557.247 253.778 562.957 242.3 572.277 220.309C572.277 219.797 573.129 217.752 574.834 214.172L574.152 211.103C575.345 208.205 577.192 206.756 579.692 206.756Z" fill="black" style="fill:black;fill-opacity:1;"/>
</svg>
