<svg width="28" height="32" viewBox="0 0 28 32" fill="none" xmlns="http://www.w3.org/2000/svg">
<g clip-path="url(#clip0_3400_991)">
<path d="M13.0059 1.19824C13.554 0.892494 14.2175 0.892397 14.7656 1.19824C18.1736 3.10016 22.9253 5.94561 25.6162 7.57129C26.685 8.21698 27.2779 9.40183 27.1211 10.6191C26.6627 14.1778 25.551 18.4756 23.3711 21.6904L23.1562 21.998C20.9119 25.1304 18.0392 27.8147 14.7627 29.8604C14.2255 30.1958 13.546 30.1957 13.0088 29.8604C9.93682 27.9424 7.21899 25.4637 5.04199 22.5801L4.61426 21.998C2.29242 18.7536 1.12353 14.2925 0.650391 10.6191C0.493601 9.40183 1.08649 8.21698 2.15527 7.57129C4.84626 5.94558 9.598 3.1001 13.0059 1.19824Z" fill="white" stroke="#303030" style="fill:white;fill-opacity:1;stroke:#303030;stroke:color(display-p3 0.1875 0.1875 0.1875);stroke-opacity:1;" stroke-width="1.25095"/>
<path d="M14.4248 3.51645C14.1028 3.32747 13.7044 3.32512 13.3802 3.51029L3.79782 8.98327C3.11535 9.37306 3.09327 10.3492 3.75743 10.7694L15.5423 18.2263C16.2354 18.6649 16.0141 19.7283 15.2036 19.8539C14.9827 19.8881 14.7569 19.8377 14.5715 19.7128L4.5247 12.9432C3.73507 12.4111 2.74269 13.1185 3.02937 14.0265C3.57049 15.7403 4.37541 17.9462 5.3272 19.4765C7.32411 22.6873 11.7506 26.248 13.3303 27.4631C13.6737 27.7272 14.1425 27.7407 14.5 27.4959C15.6711 26.6942 18.2905 24.8267 19.8055 23.1722C21.0219 21.8438 22.371 19.7301 23.0886 18.5507C23.3813 18.0697 23.223 17.4486 22.743 17.1541L12.9827 11.165C12.2536 10.7177 12.3439 9.63109 13.1368 9.31019L13.4125 9.19862C13.7215 9.07356 14.0717 9.10382 14.3546 9.28004L22.6071 14.4193C23.2268 14.8052 24.0411 14.451 24.1812 13.7345L24.5075 12.066C24.5419 11.8905 24.5305 11.709 24.4744 11.5391L23.7275 9.27715C23.6481 9.03658 23.4837 8.83318 23.2653 8.70494L14.4248 3.51645Z" fill="#303030" style="fill:#303030;fill:color(display-p3 0.1875 0.1875 0.1875);fill-opacity:1;"/>
</g>
<defs>
<clipPath id="clip0_3400_991">
<rect width="28" height="31.2" fill="white" style="fill:white;fill-opacity:1;"/>
</clipPath>
</defs>
</svg>
